<svg width="44" height="44" viewBox="0 0 44 44" fill="none" xmlns="http://www.w3.org/2000/svg">
<rect width="44" height="44" rx="14" fill="url(#paint0_linear_6711_1542)"/>
<path d="M30.3332 26.1667C30.3332 26.6087 30.1576 27.0326 29.845 27.3452C29.5325 27.6577 29.1085 27.8333 28.6665 27.8333H17.6898C17.2478 27.8334 16.824 28.0091 16.5115 28.3217L14.6765 30.1567C14.5938 30.2394 14.4883 30.2957 14.3736 30.3186C14.2588 30.3414 14.1399 30.3297 14.0318 30.2849C13.9237 30.2401 13.8313 30.1643 13.7662 30.067C13.7012 29.9697 13.6665 29.8553 13.6665 29.7383V16.1667C13.6665 15.7246 13.8421 15.3007 14.1547 14.9882C14.4672 14.6756 14.8911 14.5 15.3332 14.5H28.6665C29.1085 14.5 29.5325 14.6756 29.845 14.9882C30.1576 15.3007 30.3332 15.7246 30.3332 16.1667V26.1667Z" stroke="#00A63E" stroke-width="1.66667" stroke-linecap="round" stroke-linejoin="round"/>
<defs>
<linearGradient id="paint0_linear_6711_1542" x1="0" y1="0" x2="44" y2="44" gradientUnits="userSpaceOnUse">
<stop stop-color="#F0FDF4"/>
<stop offset="1" stop-color="#DCFCE7"/>
</linearGradient>
</defs>
</svg>