<svg width="44" height="44" viewBox="0 0 44 44" fill="none" xmlns="http://www.w3.org/2000/svg">
<rect width="44" height="44" rx="14" fill="url(#paint0_linear_7565_1297)"/>
<path d="M27.8332 29.5V27.8333C27.8332 26.9493 27.482 26.1014 26.8569 25.4763C26.2317 24.8512 25.3839 24.5 24.4998 24.5H19.4998C18.6158 24.5 17.7679 24.8512 17.1428 25.4763C16.5177 26.1014 16.1665 26.9493 16.1665 27.8333V29.5" stroke="#155DFC" stroke-width="1.66667" stroke-linecap="round" stroke-linejoin="round"/>
<path d="M21.9998 21.1667C23.8408 21.1667 25.3332 19.6743 25.3332 17.8333C25.3332 15.9924 23.8408 14.5 21.9998 14.5C20.1589 14.5 18.6665 15.9924 18.6665 17.8333C18.6665 19.6743 20.1589 21.1667 21.9998 21.1667Z" stroke="#155DFC" stroke-width="1.66667" stroke-linecap="round" stroke-linejoin="round"/>
<defs>
<linearGradient id="paint0_linear_7565_1297" x1="0" y1="0" x2="44" y2="44" gradientUnits="userSpaceOnUse">
<stop stop-color="#EFF6FF"/>
<stop offset="1" stop-color="#DBEAFE"/>
</linearGradient>
</defs>
</svg>