<svg width="19" height="19" viewBox="0 0 19 19" fill="none" xmlns="http://www.w3.org/2000/svg">
<path d="M17.5002 9.16667H15.4335C15.0693 9.16589 14.7149 9.28442 14.4244 9.50414C14.134 9.72386 13.9235 10.0327 13.8252 10.3833L11.8668 17.35C11.8542 17.3933 11.8279 17.4313 11.7918 17.4583C11.7558 17.4854 11.7119 17.5 11.6668 17.5C11.6218 17.5 11.5779 17.4854 11.5418 17.4583C11.5058 17.4313 11.4795 17.3933 11.4668 17.35L6.86683 0.983334C6.85421 0.94006 6.82789 0.902047 6.79183 0.875001C6.75577 0.847954 6.71191 0.833334 6.66683 0.833334C6.62175 0.833334 6.57789 0.847954 6.54183 0.875001C6.50577 0.902047 6.47945 0.94006 6.46683 0.983334L4.5085 7.95C4.41055 8.2993 4.20131 8.6071 3.91255 8.82668C3.62378 9.04626 3.27126 9.16563 2.9085 9.16667H0.833496" stroke="white" stroke-width="1.66667" stroke-linecap="round" stroke-linejoin="round"/>
</svg>
