<svg width="40" height="40" viewBox="0 0 40 40" fill="none" xmlns="http://www.w3.org/2000/svg">
<rect width="40" height="40" rx="14" fill="#FF6900"/>
<path d="M15.8335 15.8334H15.0002C14.5581 15.8334 14.1342 16.009 13.8217 16.3215C13.5091 16.6341 13.3335 17.058 13.3335 17.5V25C13.3335 25.4421 13.5091 25.866 13.8217 26.1786C14.1342 26.4911 14.5581 26.6667 15.0002 26.6667H22.5002C22.9422 26.6667 23.3661 26.4911 23.6787 26.1786C23.9912 25.866 24.1668 25.4421 24.1668 25V24.1667" stroke="white" stroke-width="2" stroke-linecap="round" stroke-linejoin="round"/>
<path d="M23.3333 14.1667L25.8333 16.6667M26.9875 15.4875C27.3157 15.1593 27.5001 14.7142 27.5001 14.25C27.5001 13.7859 27.3157 13.3407 26.9875 13.0125C26.6593 12.6843 26.2142 12.4999 25.75 12.4999C25.2858 12.4999 24.8407 12.6843 24.5125 13.0125L17.5 20V22.5H20L26.9875 15.4875Z" stroke="white" stroke-width="2" stroke-linecap="round" stroke-linejoin="round"/>
</svg>
