<svg width="168" height="43" viewBox="0 0 168 43" fill="none" xmlns="http://www.w3.org/2000/svg">
<g filter="url(#filter0_d_6706_1184)">
<rect width="10.7436" height="25.7479" rx="2.38155" transform="matrix(0.892578 0.450892 -0.316172 0.948702 21.6104 -0.00012207)" fill="#EF4343"/>
</g>
<g filter="url(#filter1_d_6706_1184)">
<rect width="10.7436" height="25.7479" rx="2.38155" transform="matrix(0.892578 0.450892 -0.316172 0.948702 14.8975 6.07892)" fill="#4FACFE"/>
</g>
<g filter="url(#filter2_d_6706_1184)">
<rect width="10.7436" height="25.7479" rx="2.38155" transform="matrix(0.892578 0.450892 -0.316172 0.948702 9.52344 10.0594)" fill="#FDC700"/>
</g>
<path d="M47.8849 26.8045V12.8045H53.1449C54.2649 12.8045 55.1982 12.9978 55.9449 13.3845C56.6916 13.7578 57.2449 14.2712 57.6049 14.9245C57.9649 15.5778 58.1449 16.3245 58.1449 17.1645C58.1449 17.9245 57.9716 18.6378 57.6249 19.3045C57.2782 19.9578 56.7316 20.4845 55.9849 20.8845C55.2516 21.2845 54.3049 21.4845 53.1449 21.4845H50.5849V26.8045H47.8849ZM50.5849 19.3045H52.9649C53.8316 19.3045 54.4516 19.1112 54.8249 18.7245C55.2116 18.3378 55.4049 17.8178 55.4049 17.1645C55.4049 16.4845 55.2116 15.9578 54.8249 15.5845C54.4516 15.1978 53.8316 15.0045 52.9649 15.0045H50.5849V19.3045ZM60.5901 26.8045V12.8045H69.7901V14.9845H63.2901V18.6445H69.1901V20.7445H63.2901V24.6245H69.7901V26.8045H60.5901ZM77.4903 27.0445C76.4769 27.0445 75.5703 26.8712 74.7703 26.5245C73.9836 26.1778 73.3569 25.6712 72.8903 25.0045C72.4369 24.3378 72.2036 23.5312 72.1903 22.5845H75.0503C75.0636 22.9978 75.1703 23.3712 75.3703 23.7045C75.5703 24.0378 75.8436 24.3045 76.1903 24.5045C76.5503 24.6912 76.9769 24.7845 77.4703 24.7845C77.8969 24.7845 78.2636 24.7178 78.5703 24.5845C78.8903 24.4378 79.1369 24.2378 79.3103 23.9845C79.4836 23.7312 79.5703 23.4312 79.5703 23.0845C79.5703 22.6712 79.4703 22.3312 79.2703 22.0645C79.0836 21.7978 78.8169 21.5712 78.4703 21.3845C78.1236 21.1978 77.7236 21.0312 77.2703 20.8845C76.8303 20.7245 76.3636 20.5645 75.8703 20.4045C74.7769 20.0445 73.9369 19.5645 73.3503 18.9645C72.7769 18.3645 72.4903 17.5712 72.4903 16.5845C72.4903 15.7445 72.6903 15.0245 73.0903 14.4245C73.5036 13.8245 74.0703 13.3645 74.7903 13.0445C75.5103 12.7245 76.3303 12.5645 77.2503 12.5645C78.1969 12.5645 79.0236 12.7312 79.7303 13.0645C80.4503 13.3845 81.0169 13.8512 81.4303 14.4645C81.8569 15.0778 82.0769 15.7978 82.0903 16.6245H79.2103C79.1969 16.3178 79.1036 16.0312 78.9303 15.7645C78.7703 15.4845 78.5436 15.2645 78.2503 15.1045C77.9569 14.9312 77.6103 14.8445 77.2103 14.8445C76.8636 14.8312 76.5436 14.8845 76.2503 15.0045C75.9703 15.1245 75.7436 15.3045 75.5703 15.5445C75.4103 15.7712 75.3303 16.0578 75.3303 16.4045C75.3303 16.7378 75.4103 17.0178 75.5703 17.2445C75.7436 17.4712 75.9769 17.6712 76.2703 17.8445C76.5636 18.0045 76.9103 18.1578 77.3103 18.3045C77.7103 18.4378 78.1436 18.5778 78.6103 18.7245C79.3036 18.9645 79.9436 19.2512 80.5303 19.5845C81.1169 19.9045 81.5836 20.3245 81.9303 20.8445C82.2769 21.3645 82.4503 22.0512 82.4503 22.9045C82.4503 23.6378 82.2569 24.3178 81.8703 24.9445C81.4836 25.5712 80.9236 26.0778 80.1903 26.4645C79.4703 26.8512 78.5703 27.0445 77.4903 27.0445ZM91.6806 27.0445C90.3073 27.0445 89.0939 26.7378 88.0406 26.1245C87.0006 25.5112 86.1806 24.6645 85.5806 23.5845C84.9939 22.4912 84.7006 21.2312 84.7006 19.8045C84.7006 18.3778 84.9939 17.1245 85.5806 16.0445C86.1806 14.9512 87.0006 14.0978 88.0406 13.4845C89.0939 12.8712 90.3073 12.5645 91.6806 12.5645C93.0673 12.5645 94.2873 12.8712 95.3406 13.4845C96.3939 14.0978 97.2139 14.9512 97.8006 16.0445C98.3873 17.1245 98.6806 18.3778 98.6806 19.8045C98.6806 21.2312 98.3873 22.4912 97.8006 23.5845C97.2139 24.6645 96.3939 25.5112 95.3406 26.1245C94.2873 26.7378 93.0673 27.0445 91.6806 27.0445ZM91.6806 24.6245C92.5473 24.6245 93.2939 24.4312 93.9206 24.0445C94.5606 23.6445 95.0539 23.0845 95.4006 22.3645C95.7473 21.6445 95.9206 20.7912 95.9206 19.8045C95.9206 18.8045 95.7473 17.9512 95.4006 17.2445C95.0539 16.5245 94.5606 15.9712 93.9206 15.5845C93.2939 15.1978 92.5473 15.0045 91.6806 15.0045C90.8273 15.0045 90.0806 15.1978 89.4406 15.5845C88.8139 15.9712 88.3273 16.5245 87.9806 17.2445C87.6339 17.9512 87.4606 18.8045 87.4606 19.8045C87.4606 20.7912 87.6339 21.6445 87.9806 22.3645C88.3273 23.0845 88.8139 23.6445 89.4406 24.0445C90.0806 24.4312 90.8273 24.6245 91.6806 24.6245ZM107.721 27.0445C106.321 27.0445 105.114 26.7445 104.101 26.1445C103.088 25.5312 102.308 24.6845 101.761 23.6045C101.214 22.5112 100.941 21.2512 100.941 19.8245C100.941 18.3978 101.214 17.1378 101.761 16.0445C102.308 14.9512 103.088 14.0978 104.101 13.4845C105.114 12.8712 106.321 12.5645 107.721 12.5645C109.428 12.5645 110.821 12.9845 111.901 13.8245C112.981 14.6645 113.654 15.8512 113.921 17.3845H110.961C110.788 16.6378 110.428 16.0578 109.881 15.6445C109.334 15.2178 108.608 15.0045 107.701 15.0045C106.861 15.0045 106.141 15.2045 105.541 15.6045C104.941 15.9912 104.481 16.5445 104.161 17.2645C103.854 17.9712 103.701 18.8245 103.701 19.8245C103.701 20.8112 103.854 21.6645 104.161 22.3845C104.481 23.1045 104.941 23.6578 105.541 24.0445C106.141 24.4312 106.861 24.6245 107.701 24.6245C108.608 24.6245 109.334 24.4312 109.881 24.0445C110.428 23.6445 110.788 23.0912 110.961 22.3845H113.921C113.654 23.8378 112.981 24.9778 111.901 25.8045C110.821 26.6312 109.428 27.0445 107.721 27.0445ZM115.885 26.8045L121.045 12.8045H122.825L127.965 26.8045H126.185L121.925 14.9045L117.645 26.8045H115.885ZM118.245 23.2045L118.725 21.8445H125.065L125.545 23.2045H118.245ZM130.505 26.8045V12.8045H135.025C136.119 12.8045 137.012 12.9912 137.705 13.3645C138.399 13.7245 138.912 14.2112 139.245 14.8245C139.579 15.4378 139.745 16.1312 139.745 16.9045C139.745 17.6512 139.572 18.3378 139.225 18.9645C138.892 19.5912 138.372 20.0912 137.665 20.4645C136.959 20.8378 136.052 21.0245 134.945 21.0245H132.185V26.8045H130.505ZM137.905 26.8045L134.825 20.5445H136.705L139.885 26.8045H137.905ZM132.185 19.7045H134.905C135.972 19.7045 136.752 19.4445 137.245 18.9245C137.752 18.4045 138.005 17.7378 138.005 16.9245C138.005 16.0978 137.759 15.4445 137.265 14.9645C136.785 14.4712 135.992 14.2245 134.885 14.2245H132.185V19.7045ZM142.84 26.8045V12.8045H147.08C148.72 12.8045 150.073 13.0912 151.14 13.6645C152.206 14.2245 152.993 15.0312 153.5 16.0845C154.02 17.1245 154.28 18.3778 154.28 19.8445C154.28 21.2845 154.02 22.5245 153.5 23.5645C152.993 24.6045 152.206 25.4045 151.14 25.9645C150.073 26.5245 148.72 26.8045 147.08 26.8045H142.84ZM144.52 25.4045H147.04C148.4 25.4045 149.48 25.1845 150.28 24.7445C151.093 24.2912 151.673 23.6512 152.02 22.8245C152.366 21.9845 152.54 20.9912 152.54 19.8445C152.54 18.6712 152.366 17.6645 152.02 16.8245C151.673 15.9845 151.093 15.3378 150.28 14.8845C149.48 14.4312 148.4 14.2045 147.04 14.2045H144.52V25.4045Z" fill="#1447E6"/>
<defs>
<filter id="filter0_d_6706_1184" x="12.0868" y="0.830933" width="20.4959" height="31.6203" filterUnits="userSpaceOnUse" color-interpolation-filters="sRGB">
<feFlood flood-opacity="0" result="BackgroundImageFix"/>
<feColorMatrix in="SourceAlpha" type="matrix" values="0 0 0 0 0 0 0 0 0 0 0 0 0 0 0 0 0 0 127 0" result="hardAlpha"/>
<feOffset dy="2.00552"/>
<feGaussianBlur stdDeviation="1.00276"/>
<feComposite in2="hardAlpha" operator="out"/>
<feColorMatrix type="matrix" values="0 0 0 0 0 0 0 0 0 0 0 0 0 0 0 0 0 0 0.25 0"/>
<feBlend mode="normal" in2="BackgroundImageFix" result="effect1_dropShadow_6706_1184"/>
<feBlend mode="normal" in="SourceGraphic" in2="effect1_dropShadow_6706_1184" result="shape"/>
</filter>
<filter id="filter1_d_6706_1184" x="5.37387" y="6.90997" width="20.4959" height="31.6203" filterUnits="userSpaceOnUse" color-interpolation-filters="sRGB">
<feFlood flood-opacity="0" result="BackgroundImageFix"/>
<feColorMatrix in="SourceAlpha" type="matrix" values="0 0 0 0 0 0 0 0 0 0 0 0 0 0 0 0 0 0 127 0" result="hardAlpha"/>
<feOffset dy="2.00552"/>
<feGaussianBlur stdDeviation="1.00276"/>
<feComposite in2="hardAlpha" operator="out"/>
<feColorMatrix type="matrix" values="0 0 0 0 0 0 0 0 0 0 0 0 0 0 0 0 0 0 0.25 0"/>
<feBlend mode="normal" in2="BackgroundImageFix" result="effect1_dropShadow_6706_1184"/>
<feBlend mode="normal" in="SourceGraphic" in2="effect1_dropShadow_6706_1184" result="shape"/>
</filter>
<filter id="filter2_d_6706_1184" x="-0.000148535" y="10.8905" width="20.4959" height="31.6203" filterUnits="userSpaceOnUse" color-interpolation-filters="sRGB">
<feFlood flood-opacity="0" result="BackgroundImageFix"/>
<feColorMatrix in="SourceAlpha" type="matrix" values="0 0 0 0 0 0 0 0 0 0 0 0 0 0 0 0 0 0 127 0" result="hardAlpha"/>
<feOffset dy="2.00552"/>
<feGaussianBlur stdDeviation="1.00276"/>
<feComposite in2="hardAlpha" operator="out"/>
<feColorMatrix type="matrix" values="0 0 0 0 0 0 0 0 0 0 0 0 0 0 0 0 0 0 0.25 0"/>
<feBlend mode="normal" in2="BackgroundImageFix" result="effect1_dropShadow_6706_1184"/>
<feBlend mode="normal" in="SourceGraphic" in2="effect1_dropShadow_6706_1184" result="shape"/>
</filter>
</defs>
</svg>
