<svg width="20" height="20" viewBox="0 0 20 20" fill="none" xmlns="http://www.w3.org/2000/svg">
<path d="M2.5 5.83333V4.16667C2.5 3.72464 2.67559 3.30072 2.98816 2.98816C3.30072 2.67559 3.72464 2.5 4.16667 2.5H5.83333" stroke="white" stroke-width="1.33333" stroke-linecap="round" stroke-linejoin="round"/>
<path d="M14.1665 2.5H15.8332C16.2752 2.5 16.6991 2.67559 17.0117 2.98816C17.3242 3.30072 17.4998 3.72464 17.4998 4.16667V5.83333" stroke="white" stroke-width="1.33333" stroke-linecap="round" stroke-linejoin="round"/>
<path d="M17.4998 14.1667V15.8334C17.4998 16.2754 17.3242 16.6993 17.0117 17.0119C16.6991 17.3244 16.2752 17.5 15.8332 17.5H14.1665" stroke="white" stroke-width="1.33333" stroke-linecap="round" stroke-linejoin="round"/>
<path d="M5.83333 17.5H4.16667C3.72464 17.5 3.30072 17.3244 2.98816 17.0119C2.67559 16.6993 2.5 16.2754 2.5 15.8334V14.1667" stroke="white" stroke-width="1.33333" stroke-linecap="round" stroke-linejoin="round"/>
<path d="M5.8335 10H14.1668" stroke="white" stroke-width="1.33333" stroke-linecap="round" stroke-linejoin="round"/>
</svg>
